<svg xmlns="http://www.w3.org/2000/svg" viewBox="0 0 611.48 231.87"><defs><style>.cls-1{fill:#ff003d;}</style></defs><title>logo_svg</title><g id="Calque_2" data-name="Calque 2"><g id="Calque_1-2" data-name="Calque 1"><path class="cls-1" d="M208.84,77.37c-2.79,3.71-5.5,7.49-8.38,11.12a74.64,74.64,0,0,1-15.38,15c-5.13,3.6-10.58,4.59-16.07,1.12-5.67-3.58-7.58-9.13-7-15.64.2-2.34.55-4.67.87-7.35-2.5,3.3-4.75,6.38-7.1,9.37-4.75,6-9.95,11.62-16.32,16-5.11,3.51-10.51,4.3-15.88.85-5.56-3.58-7.4-9.07-6.94-15.47a8.26,8.26,0,0,0-.24-3.37c-1.21,1.93-2.39,3.88-3.64,5.78C109.36,99.91,106,105,101.26,109a8.87,8.87,0,0,1-14-2.57,14.44,14.44,0,0,1-.63-9c1.78-8.84,5.65-16.91,9.27-25.07,2.26-5.09,4.75-10.09,7-15.2,1.27-2.91,1.75-5.91-.83-8.51a8.64,8.64,0,0,0-1-.71C90.5,68.66,79.93,89.16,72.56,111.11c-3.63-1-5.54-5.49-3.76-9.35,3.7-8,7.39-16.1,11.48-23.94C85.66,67.45,91.41,57.26,97,47a3.32,3.32,0,0,0,.05-3.77c-2-3.46-.55-6.62,1.36-9.63.44-.69,1-1.31,1.67-2.21-3.35-.28-6.45-.39-9.49-.83C82.86,29.46,75.11,28.17,67.35,27c-8.29-1.28-16.51-3.11-25-2.71-9.35.44-16.81,4.52-22.82,11.52C14,42.27,10.64,50,7.42,57.76c-.57,1.37-1.12,3.64-2.64,3.72C3,61.57,2,59.07,1.35,57.54-1.42,50.83.31,44.64,4.3,39,9.2,32,16,27.15,23.39,23.2,34,17.56,45.26,13.61,57.29,12.73a120.68,120.68,0,0,1,19.21.51c10.8.94,21.51,2.89,32.42,2.4,2.8-.12,3.5.67,2.3,3.23-1.86,4-4.19,7.68-6.38,11.6.94.75,2.41,1.8,3.73,3s1.09,2.24-.2,3.29a19.11,19.11,0,0,0-2.16,2c-2.42,2.71-2.3,4.35.28,6.87a85.84,85.84,0,0,1,6.21,6.42c3.45,4.16,3.88,8.67,1.45,13.64-4.14,8.43-8.09,16.95-12,25.48a48.09,48.09,0,0,0-2.36,6.92c-.23.79-.63,2.13.11,2.6s2-.46,2.52-1.09a128,128,0,0,0,9.11-11.76c5.71-8.95,11.07-18.13,16.57-27.21A89.48,89.48,0,0,1,140.91,44c9.07-9.17,21.49-3.55,25.59,3.86a5.47,5.47,0,0,1,.55,4.75c-3.25,9.74-9.22,17.5-17.12,23.88a12,12,0,0,1-11.65,2.22c-1.62-.5-2.77-.2-3.45,1.24-2.22,4.73-4,9.61-3.91,14.92.12,5.05,3,6.82,7.66,4.88C144.2,97.37,148.19,93,152,88.55c8.26-9.6,15-20.27,21.39-31.15a85.4,85.4,0,0,1,12.8-16.7c9.09-9.21,21.49-3.58,25.6,3.8a5.47,5.47,0,0,1,.59,4.75C209.17,59,203.2,66.75,195.3,73.14a12,12,0,0,1-11.64,2.25c-1.59-.49-2.78-.27-3.47,1.19-2.25,4.8-4.11,9.74-3.92,15.15.17,4.89,3,6.6,7.61,4.71,5.33-2.2,9.17-6.26,12.87-10.45a156.52,156.52,0,0,0,19.33-27.56c4.07-7.31,6.87-15.32,10.71-22.78C232.29,25,238.13,14.51,244,4c3-5.39,10.73-5.33,14.35-.17.9,1.28.3,2.06-.28,3.07-6,10.56-12.21,21-17.89,31.73-7.61,14.38-14.36,29.17-19,44.81-.72,2.41-1.36,4.85-1.89,7.3a3.62,3.62,0,0,0,.15,2.56.71.71,0,0,0,.6.36c1.6-.14,2.68-1.94,3.58-3.21,4.73-6.66,9.55-13.28,13.91-20.17,4.82-7.61,9-15.6,13.79-23.26,3.39-5.47,7.37-10.56,12.88-14.14s11.16-3.67,16.76,0c2.63,1.71,2.64,1.7,4.38-.85,1.1-1.61,4-2.34,6.7-1.53a17.1,17.1,0,0,1,3.76,1.66c3.06,1.81,3.28,3,1.5,6.05a175.94,175.94,0,0,0-19,46.21c-.25,1-.84,2.7.09,3.26s2.4-.75,3-1.57c4.46-6,9-12,13.07-18.23C298.86,61.05,303,54,307,46.85c2.73-4.93,4.83-10.21,7.28-15.3,1.46-3,3.13-3.87,6.44-3.25a13.22,13.22,0,0,1,3.24,1.09c4.05,1.94,4.45,3.19,2.54,7.15q-4.22,8.77-8.37,17.57a6.44,6.44,0,0,0-.83,2.81c0,.28.49.48.75.37.79-.33,1.27-1.35,1.83-2.09,4.68-6.14,9.15-12.45,14.06-18.39,3.55-4.3,7.68-8.14,13.12-10.1a11.42,11.42,0,0,1,8.51.22c3.74,1.57,4.25,3.35,2.12,6.7A177.64,177.64,0,0,0,339,71.87c-1.24,3.68-2.18,7.46-3.17,11.22-.17.64-.4,1.73.2,2.12s1.75-.22,2.16-.72c3.39-4.13,7-8.12,9.89-12.59,6.4-10,12.16-20.34,18.65-30.24a104.44,104.44,0,0,1,12.29-15.33c8.51-8.78,22.92-3.85,26.59,4.72.58,1.36.95,3.33.4,4.57a54.49,54.49,0,0,1-13.83,19.46,4.48,4.48,0,0,1-5.44.82,19.47,19.47,0,0,1-1.82-1c-3.72-2.34-3.76-3-.62-5.86a58.21,58.21,0,0,0,12-15.82c.48-.9,1.13-2.61.27-3.33s-2.62.17-3.29.87a95.91,95.91,0,0,0-8.74,10c-6.51,9-12.05,18.6-15.27,29.33a26.76,26.76,0,0,0-1.18,7.63c0,4,2.79,5.94,6.64,4.92,5.45-1.44,9.22-5.3,12.85-9.23,7.55-8.19,13.46-17.59,19.31-27,4.72-7.61,9.48-15.18,15.73-21.67,3.24-3.36,6.8-6.06,11.85-6.17,6-.12,13.2,4.15,15.52,9.65a4.85,4.85,0,0,1,.22,3c-3.13,10.4-9.43,18.57-18,25.1a11.68,11.68,0,0,1-11.1,1.7,2.45,2.45,0,0,0-3.36,1.42c-2.13,4.6-3.88,9.34-3.84,14.49,0,5.33,2.94,7.17,7.82,5.1,5.53-2.35,9.45-6.66,13.27-11,7.76-8.92,14-18.92,20.18-28.94a29.81,29.81,0,0,1,2.14-3.25c.35-.43,1.13-1.08,1.68-.78s.47,1.38.25,1.86c-1.17,2.57-2.44,5.09-3.76,7.59-6.79,12.83-14.58,25-25.07,35.14A50.73,50.73,0,0,1,419,88.13c-6.44,3.36-14.31,0-17.57-6.58-2.59-5.23-1.82-10.56-.93-15.94,0-.3.13-.59.18-.89,0-.06,0-.14-.2-.57-.57.75-1,1.34-1.48,2-5.87,8.53-12.1,16.7-20.51,23a15.46,15.46,0,0,1-20.28-1.27c-3.81-4-4.3-8.95-4-14.11a4.49,4.49,0,0,0-.27-2.37c-1.72,2.65-3.26,5.45-5.21,7.93C345.05,84,341.3,88.6,337.29,93c-2.66,2.9-6.13,4-10,2.1A10.29,10.29,0,0,1,321.88,85c.51-7.11,2.78-13.76,5.61-20.2,3.41-7.75,7.12-15.37,10.66-23.07a19.41,19.41,0,0,0,1.27-3.54c.06-.24-.35-.48-.59-.43a14.07,14.07,0,0,0-2.43,2.4,202.38,202.38,0,0,0-22.54,33.41c-3.76,6.88-6.85,14.13-10.18,21.24a3.07,3.07,0,0,1-3.58,1.79,17.37,17.37,0,0,1-5-1.42c-3.21-1.59-5.69-2.59-3.69-7.78a118.51,118.51,0,0,0,4-12.47c-1.53,2.45-2.9,5-4.61,7.33-3.12,4.24-6.26,8.49-9.74,12.43-2.43,2.74-5.53,4.61-9.59,3.39a8.47,8.47,0,0,1-6.07-7c-.81-6.1,1.06-11.79,2.62-17.53.43-1.58,1.38-4.21,1.37-4.72,0-.2-.35-.27-.55-.24-.35.06-1.31,2.31-2,3.46-4,6.87-7.9,13.78-12,20.59a39.06,39.06,0,0,1-4.13,5.2c-2.1,2.44-4.67,3.66-7.94,2.63a8.19,8.19,0,0,1-6.16-7.24c-.4-4.13-.12-8.33-.14-12.65-.47.74-1,1.59-1.53,2.38-3.92,5.45-7.73,11-11.86,16.29-1.81,2.32-4.19,4.29-7.43,4.55-5.61.44-9.93-4.08-9.26-10.18.53-4.83,1.64-9.6,2.49-14.39.1-.58.27-1.21.31-1.74C209.23,77.34,209,77.41,208.84,77.37ZM250,88.1a.8.8,0,0,0,1,.43A5.15,5.15,0,0,0,252.57,87c2.56-3.43,5.4-6.69,7.55-10.36C267,65,273.58,53.21,280.2,41.43c.49-.87,1.22-2.37.49-3.15s-2.61-.24-3.46.33a20.54,20.54,0,0,0-4.49,4.2A132.44,132.44,0,0,0,252.29,79.2C251.22,82,249.62,86.3,250,88.1ZM158.27,47.41a2.15,2.15,0,0,0-2.14-.07,7.24,7.24,0,0,0-2.56,2.24c-3.16,4-6.3,8.06-9.22,12.25a90.48,90.48,0,0,0-5.06,8.71c-.3.56-.55,1.63,0,2.13s1.51.22,2.06-.07a15.77,15.77,0,0,0,3.35-2.34c6.09-5.68,9.53-13,13.43-20.27C158.42,49.39,159.34,48.33,158.27,47.41Zm45.27-3.15a1.67,1.67,0,0,0-2.08,0,11.52,11.52,0,0,0-3.05,2.54,65.31,65.31,0,0,0-5.55,7c-2.82,4.27-5.43,8.67-8,13.08-.38.65-.82,1.94-.2,2.52s1.78,0,2.48-.35a12.76,12.76,0,0,0,2.94-2.14c5.7-5.38,9.67-11.88,12.86-19C203.42,46.76,204.53,45.28,203.54,44.26ZM442,27.13c-.22-.91-1.62-.73-2.14-.56a6.24,6.24,0,0,0-2.27,1.48c-6.6,6.34-11.06,14.18-15.39,22.1a1.38,1.38,0,0,0,.14,1.84,2.4,2.4,0,0,0,2,0,14.47,14.47,0,0,0,3.18-2.18,52.34,52.34,0,0,0,11.93-16.66C440.36,31.35,442.3,28.2,442,27.13Z"/><path class="cls-1" d="M68.86,82.47,46.47,84.1c-.92.07-1.83.14-2.74.26a5.93,5.93,0,0,0-5.22,3.81c-3.78,9.17-7.73,18.26-11.5,27.43a2.66,2.66,0,0,1-2.67,2c-4.51.23-8.66-.59-12.09-3.79a3.58,3.58,0,0,1-1-4.64c3-6.6,5.81-13.27,8.7-19.92.21-.49.4-1,.63-1.47.86-1.81.17-2.65-1.71-2.93a9.23,9.23,0,0,1-7.29-6.62c-.69-2.93.19-3.84,3.14-3.38,2.26.35,4.54.55,6.8.87,3.18.45,5-1.17,6.23-3.89,2.35-5.14,4.68-10.29,7.23-15.33C38.8,49,42.88,41.64,46.62,34.12c1.59-3.2,4-4.52,7.2-3.67a55.05,55.05,0,0,1,8.89,3.37c1.71.78,1.86,2.14.89,4C57.69,48.91,51.92,60.11,46.1,71.28c0,.07-.08.13-.11.2-1.67,3.55-1.21,4.18,2.74,4.23,4.81.06,9.62.17,14.43.38A5.93,5.93,0,0,1,68.86,82.47Z"/><path class="cls-1" d="M434,123c.87-2.77,4.77-3,7.54-3.51.79-.14,1.34-.2,1.6-.23,4.93-.58,6.86-2.12,9.36-6.28,2.38-3.82,3.75-6.38,5.5-9.65a5.4,5.4,0,0,1,5.78-2.93,11.59,11.59,0,0,1,7.55,3.64,2.37,2.37,0,0,1,.27,3.31c-1.76,2.72-3.46,5.49-5,8.33-1.12,2-.68,2.47,1.62,2.59a27.72,27.72,0,0,1,5.92.83c.89.25,2.39,1.06,2.31,2.11-.09,1.21-1.93,1.85-3,2a38,38,0,0,1-6.48,0,6.9,6.9,0,0,0-6.75,4c-8.21,15.76-15.66,31.85-20.81,48.91a35.88,35.88,0,0,0-1.17,4.7c-.12.73-.26,1.93.42,2.31s1.57-.3,2-.76a41.45,41.45,0,0,0,5.2-5.59c8.08-11.6,16.26-23.14,23.92-35,3.5-5.41,6-11.5,8.76-17.35a4.47,4.47,0,0,1,4.84-2.77,15.77,15.77,0,0,1,5.3,1.42c4.07,2,4.35,3.34,2.1,7.24-8.4,14.57-15.2,29.82-19.23,46.21a9,9,0,0,0-.32,3.7c.06.29.47.46.76.44,1.17-.09,2.59-1.82,3.5-3,3.68-4.87,7.43-9.7,10.73-14.82,6.19-9.6,12-19.46,18.16-29.08,3.34-5.22,7.2-10.06,12.3-13.75A13.1,13.1,0,0,1,527.51,118c2.15.44,4.34.77,6.53,1,3.94.42,9.09,4.55,8.8,9.94-.55,10.36-4.14,19.71-8.65,28.8-4.8,9.68-10.47,18.78-18.68,26a30.08,30.08,0,0,1-5.89,4c-5.4,2.82-10.05.58-14.35-2.66a14.31,14.31,0,0,1-6-13.53,12,12,0,0,0-.15-4.36c-.57.92-1.08,1.87-1.71,2.74-3.76,5.28-7.35,10.7-11.42,15.73a16.42,16.42,0,0,1-6.8,5c-5.12,1.85-10.11-1.88-10.71-7.48-.57-5.25.68-10.27,2-15.29a6.17,6.17,0,0,0,.27-2.66c-1.3,2.06-2.58,4.13-3.9,6.18-4.52,7-9.26,13.9-15.68,19.4-2.41,2.06-5.05,3.6-8.4,3.16a8.27,8.27,0,0,1-7.33-9c.26-5,1.55-10,2.48-15a30.25,30.25,0,0,0,.92-4.79c-1.95,2.87-3.85,5.78-5.86,8.6-5.36,7.52-11.17,14.59-18.75,20.06A15.54,15.54,0,0,1,383.93,192c-3.68-4.08-4.09-9-3.75-14.13a35.6,35.6,0,0,0,.29-5.08c-2.21,2.92-4.37,5.88-6.65,8.74a79.54,79.54,0,0,1-16.76,16.22c-9.51,6.56-21.56.64-22.56-11.44a82.6,82.6,0,0,1,.19-8.49c-1.52,2.4-2.73,4.37-4,6.29-3.92,5.94-7.81,11.9-13.29,16.59-3.87,3.32-7,4-10.54,2.06a9.47,9.47,0,0,1-5.07-10.34,76.53,76.53,0,0,1,4.08-16.3c3.48-8.81,7.76-17.31,11.67-25.95a43.78,43.78,0,0,0,1.9-4.79c.09-.29-.47-.59-.76-.5-.6.19-2,2-2.85,3a200,200,0,0,0-21.39,31.64c-4.11,7.48-7.43,15.4-11.29,23a4.15,4.15,0,0,1-3.09,1.77,13.41,13.41,0,0,1-4.93-1.05c-4.91-1.86-5.74-3.69-4.14-8.63.69-2.13,1.44-4.23,2.18-6.34a31.23,31.23,0,0,0,1.77-6.22c-1.32,2.1-2.6,4.23-4,6.3-3.91,5.95-7.8,11.91-13.28,16.6-3.89,3.33-7,4-10.53,2.11a9.46,9.46,0,0,1-5.11-10.32,76,76,0,0,1,4.07-16.3c3.48-8.81,7.75-17.31,11.66-25.95.71-1.57,1.45-3.41,1.91-4.8.1-.29-.46-.63-.75-.52-.83.33-2,2-2.83,3a201,201,0,0,0-21.52,31.84c-4.08,7.41-7.36,15.26-11.19,22.82a4.32,4.32,0,0,1-3.28,1.81,13.7,13.7,0,0,1-5.12-1.25c-4.67-1.94-5.45-3.51-3.82-8.16a532.55,532.55,0,0,1,23.07-56.52c1.19-2.46,3-3.5,5.57-3.09a16.37,16.37,0,0,1,4.79,1.54c3.67,1.89,3.88,3,2.07,6.66q-4.42,9-8.68,18.17a6.54,6.54,0,0,0-.87,2.58.9.9,0,0,0,1.16.83,33.39,33.39,0,0,0,1.87-2.88c4.58-6.12,9-12.35,13.91-18.23,3.6-4.34,7.77-8.23,13.26-10.19a11.5,11.5,0,0,1,9,.41c3.32,1.57,3.76,3.31,1.8,6.41a180.16,180.16,0,0,0-19.5,40.59c-1,3-1.76,6.07-2.5,9.14-.19.79-.55,2.12.18,2.57s2-.49,2.53-1.12a62.11,62.11,0,0,0,6.5-7.84c7.12-11.12,14.21-22.28,20.94-33.64,3-5,5.15-10.53,7.53-15.89,1.39-3.12,2.9-4,7.15-3.29a11.59,11.59,0,0,1,3.41,1.38c3.58,1.95,3.83,3,2.1,6.49q-4.46,9.15-8.79,18.38a11.43,11.43,0,0,0-.83,2.38c-.07.27.68.72.93.6a9.91,9.91,0,0,0,2.08-2.58c5.48-8.06,11.05-16.06,18.36-22.64,3.58-3.22,7.33-6.36,12.51-6.29a15.1,15.1,0,0,1,5.78,1.28c2.87,1.27,3.25,3.15,1.57,5.78A182,182,0,0,0,320,176.69c-1.66,4.63-2.84,9.44-4.15,14.19-.17.62-.3,1.72.31,2.08s1.62-.25,2-.72c3.42-4.18,7.07-8.22,10-12.72,5.71-8.72,10.82-17.83,16.53-26.55,4.05-6.18,8.5-12.14,13.14-17.89,3-3.66,6.86-6.12,12-6.21,6.26-.11,13.72,4.42,15.69,10.34.52,1.57-.14,3.77-.82,5.46a52.22,52.22,0,0,1-16.75,22.07,12.16,12.16,0,0,1-11.59,2.07c-1.64-.5-2.8-.17-3.47,1.29-2.24,4.94-4.23,10-3.87,15.54.3,4.68,3.08,6.3,7.5,4.53s7.85-4.89,11-8.3c9.29-10,16.7-21.43,23.45-33.28a80.89,80.89,0,0,1,14.16-18.55c9.05-8.7,23.46-3.76,27.18,4.85a5.91,5.91,0,0,1,.07,5.33c-3.46,7-7.6,13.4-13.47,18.67a5.09,5.09,0,0,1-6.51.75c-.55-.29-1.07-.61-1.59-1-3.24-2.15-3.26-2.88-.46-5.39A57.31,57.31,0,0,0,423,136.58c.39-.76.84-2.15.16-2.79s-2.3-.26-2.91.23a36.9,36.9,0,0,0-5.52,5.52,110.66,110.66,0,0,0-18.63,32.64,34.34,34.34,0,0,0-1.86,9.46c-.23,4.38,2.78,6.46,7,5.26,5.38-1.52,9.42-5.17,12.68-9.34,6.22-8,12-16.3,17.85-24.52,5.62-7.84,9.1-16.81,13.2-25.44,1.43-3,.83-3.87-2.54-3.86-2.75,0-6.36.36-8.25.08C433.92,123.79,433.95,123.29,434,123Zm68.1,54.34a3.77,3.77,0,0,0,1.9,2.92c.81.29,2.22-.31,3-1a19.53,19.53,0,0,0,3.49-3.69,131.87,131.87,0,0,0,18.65-36.3,78.24,78.24,0,0,0,2.5-11.72,2.12,2.12,0,0,0-.75-2,3,3,0,0,0-2.51.29,26.38,26.38,0,0,0-3.75,4.07,161.93,161.93,0,0,0-19,35.67C504.17,169.4,501.6,173.27,502.13,177.37ZM376.19,136.77c-1.56-.58-2.5.82-3.08,1.49a105.05,105.05,0,0,0-7.57,9c-2.91,4.17-5.43,8.61-8,13-.38.65-.76,2-.14,2.55s1.52.09,2.11-.19a8.31,8.31,0,0,0,2.84-1.93c3.43-4.15,7-8.23,10-12.67,1.88-2.76,3-6.07,4.23-9.21C376.83,138.27,377.26,137.17,376.19,136.77Z"/><path class="cls-1" d="M121.19,165.11c.75-1,2.37-.78,3.58-.93,11.49-1.4,22.11-5.1,31.29-12.29,7.16-5.61,13.11-12.23,15.87-21.16.85-2.74,1.15-5.61-1.09-7.84s-5.46-2.4-8.48-1.65c-5.75,1.43-10.58,4.66-15.09,8.32-19.32,15.73-34,34.94-42.62,58.43-1.95,5.3-3.62,10.93-3.86,16.61a17.86,17.86,0,0,0,.49,6.06,10.25,10.25,0,0,0,10.64,7.56c8.47-.3,15.78-4,22.83-8.18,14.91-8.83,26.45-21.2,36.19-35.35,5.56-8.08,10.84-16.34,16.55-24.31a35.94,35.94,0,0,1,7.17-6.85c3.61-2.84,7.8-3,12.12-1.79a13.92,13.92,0,0,0,3.79.57c5-.06,10.41,4.86,10.07,10.18-.66,10.35-4.2,19.7-8.72,28.78-4.81,9.67-10.49,18.76-18.72,26a39.55,39.55,0,0,1-5.91,4c-7.87,4.68-22.12-5.33-20.23-16.38a60.25,60.25,0,0,0,.9-8.93c-.6.79-1.2,1.57-1.79,2.36-7.89,10.57-16.59,20.37-27.19,28.34-4.7,3.53-9.66,6.66-15.35,8.4-11.14,3.39-20.88.81-28.76-7.57-8.7-9.25-10.38-20.51-7.3-32.41,5.79-22.37,18.44-40.59,35.15-56.17a79.37,79.37,0,0,1,21.8-14.64,29.36,29.36,0,0,1,33.94,6.8c6.08,6.76,6.47,14.5.86,21.62-6.48,8.23-14.84,14.09-24.19,18.62a65.11,65.11,0,0,1-24,6.49,40.84,40.84,0,0,1-7.81-.65,2.91,2.91,0,0,1-2.13-1A1,1,0,0,1,121.19,165.11Zm58.72,35.61a3.86,3.86,0,0,0,1.83,3c.79.31,2.22-.25,3-.88a19.07,19.07,0,0,0,3.5-3.67,132.35,132.35,0,0,0,18.68-36.29,76.09,76.09,0,0,0,2.5-11.48,3,3,0,0,0-1-2.54c-.57-.31-1.92.19-2.57.74a21.53,21.53,0,0,0-3.42,3.75,162,162,0,0,0-19,35.67C182,192.79,179.45,196.64,179.91,200.71Z"/><path class="cls-1" d="M581.14,125.8c-.79.13-2.1,2.16-3,3.32a235.26,235.26,0,0,0-26.37,40.8c-2.27,4.37-3.88,9.07-6.07,13.48a4.35,4.35,0,0,1-3.25,1.85,12.82,12.82,0,0,1-4.92-1.11c-4.8-1.89-5.7-3.67-4-8.49a521.08,521.08,0,0,1,23-56.28c1.37-2.8,2.63-3.55,5.74-3.13a14,14,0,0,1,4.37,1.37c3.86,2,4.11,3.09,2.22,7-2.94,6-5.81,12.1-8.66,18.18-.36.77-.88,1.82-.62,2.51.09.25.45.49.69.37a11.14,11.14,0,0,0,2.1-2.51c4.68-6.14,9.16-12.45,14.08-18.39,3.55-4.27,7.68-8.08,13.09-10a11.53,11.53,0,0,1,8.81.28c3.62,1.6,4.07,3.34,2,6.67a179.64,179.64,0,0,0-19.38,40.39c-1,3.15-1.8,6.38-2.59,9.59-.16.66-.41,1.74.19,2.14s1.78-.23,2.19-.73c3.46-4.24,7.15-8.36,10.12-12.93,6-9.26,11.61-18.79,17.45-28.16.57-.92,1.62-2.59,2.44-2.11,1.59.93.28,2.15-.19,3.13-6.56,13.74-13.43,27.34-22.62,39.55a57.93,57.93,0,0,1-10.25,10.58c-4.55,3.59-11.22.66-12.86-5-1.33-4.55-.31-8.89.89-13.21,3.12-11.21,8.25-21.59,13.4-32a41.8,41.8,0,0,0,2.95-6.61C582.14,126,581.49,125.74,581.14,125.8Z"/><path class="cls-1" d="M501.8,88.59a6.83,6.83,0,0,1,7.7,7c.07,5.57-5,10.9-10.48,11a7.06,7.06,0,0,1-7.14-8.67C492.78,93,497.1,89,501.8,88.59Z"/><path class="cls-1" d="M231.17,228.9s118.58-16.18,219-19.09S480,220.3,480,220.3s-56,0-128.92,4.45S231.41,235.75,231.17,228.9Z"/></g></g></svg>